<mxfile host="65bd71144e">
    <diagram id="3xweiXD7FwkrshUaI6gP" name="PÃ¡gina-1">
        <mxGraphModel dx="197" dy="425" grid="1" gridSize="10" guides="1" tooltips="1" connect="1" arrows="1" fold="1" page="1" pageScale="1" pageWidth="827" pageHeight="1169" math="0" shadow="0">
            <root>
                <mxCell id="0"/>
                <mxCell id="1" parent="0"/>
                <mxCell id="10" value="" style="group" parent="1" vertex="1" connectable="0">
                    <mxGeometry x="205.2" y="166.5" width="90" height="170" as="geometry"/>
                </mxCell>
                <mxCell id="5" value="" style="group" parent="10" vertex="1" connectable="0">
                    <mxGeometry y="41.119133574007215" width="90" height="128.8808664259928" as="geometry"/>
                </mxCell>
                <mxCell id="3" value="" style="aspect=fixed;perimeter=ellipsePerimeter;html=1;align=center;shadow=0;dashed=0;spacingTop=3;image;image=img/lib/active_directory/web_server.svg;" parent="5" vertex="1">
                    <mxGeometry x="19.01" y="-10" width="68.95" height="86.19" as="geometry"/>
                </mxCell>
                <mxCell id="4" value="Web app" style="text;html=1;align=center;verticalAlign=middle;resizable=0;points=[];autosize=1;strokeColor=none;fillColor=none;" parent="5" vertex="1">
                    <mxGeometry y="92.05776173285199" width="70" height="30" as="geometry"/>
                </mxCell>
                <mxCell id="8" value="front" style="text;html=1;align=center;verticalAlign=middle;resizable=0;points=[];autosize=1;strokeColor=none;fillColor=none;rotation=0;" parent="10" vertex="1">
                    <mxGeometry x="13.309859154929578" width="50" height="30" as="geometry"/>
                </mxCell>
                <mxCell id="13" value="" style="group" parent="1" vertex="1" connectable="0">
                    <mxGeometry x="370.2" y="166.5" width="70" height="150" as="geometry"/>
                </mxCell>
                <mxCell id="7" value="" style="aspect=fixed;perimeter=ellipsePerimeter;html=1;align=center;shadow=0;dashed=0;spacingTop=3;image;image=img/lib/active_directory/generic_server.svg;" parent="13" vertex="1">
                    <mxGeometry x="9.800000000000011" y="30" width="50.4" height="90" as="geometry"/>
                </mxCell>
                <mxCell id="11" value="servidor" style="text;html=1;align=center;verticalAlign=middle;resizable=0;points=[];autosize=1;strokeColor=none;fillColor=none;" parent="13" vertex="1">
                    <mxGeometry y="120" width="70" height="30" as="geometry"/>
                </mxCell>
                <mxCell id="12" value="back" style="text;html=1;align=center;verticalAlign=middle;resizable=0;points=[];autosize=1;strokeColor=none;fillColor=none;" parent="13" vertex="1">
                    <mxGeometry x="10.199999999999989" width="50" height="30" as="geometry"/>
                </mxCell>
                <mxCell id="19" value="" style="group" parent="1" vertex="1" connectable="0">
                    <mxGeometry x="40" y="210" width="122.4" height="95" as="geometry"/>
                </mxCell>
                <mxCell id="17" value="" style="group" parent="19" vertex="1" connectable="0">
                    <mxGeometry width="122.4" height="63" as="geometry"/>
                </mxCell>
                <mxCell id="2" value="" style="outlineConnect=0;dashed=0;verticalLabelPosition=bottom;verticalAlign=top;align=center;html=1;shape=mxgraph.aws3.user;fillColor=#D2D3D3;gradientColor=none;" parent="17" vertex="1">
                    <mxGeometry width="50" height="63" as="geometry"/>
                </mxCell>
                <mxCell id="16" value="" style="points=[];aspect=fixed;html=1;align=center;shadow=0;dashed=0;image;image=img/lib/allied_telesis/computer_and_terminals/Personal_Computer_with_Server.svg;" parent="17" vertex="1">
                    <mxGeometry x="60" width="62.400000000000006" height="62.400000000000006" as="geometry"/>
                </mxCell>
                <mxCell id="18" value="USUARIO" style="text;html=1;align=center;verticalAlign=middle;resizable=0;points=[];autosize=1;strokeColor=none;fillColor=none;" parent="19" vertex="1">
                    <mxGeometry x="10" y="65" width="80" height="30" as="geometry"/>
                </mxCell>
                <mxCell id="20" style="edgeStyle=none;html=1;entryX=0;entryY=0.5;entryDx=0;entryDy=0;" parent="1" source="16" target="3" edge="1">
                    <mxGeometry relative="1" as="geometry"/>
                </mxCell>
                <mxCell id="23" value="" style="group" parent="1" vertex="1" connectable="0">
                    <mxGeometry x="300.2" y="231.5" width="70" height="20" as="geometry"/>
                </mxCell>
                <mxCell id="14" style="edgeStyle=none;html=1;" parent="23" edge="1">
                    <mxGeometry relative="1" as="geometry">
                        <mxPoint as="sourcePoint"/>
                        <mxPoint x="70" as="targetPoint"/>
                    </mxGeometry>
                </mxCell>
                <mxCell id="22" style="edgeStyle=none;html=1;" parent="23" edge="1">
                    <mxGeometry relative="1" as="geometry">
                        <mxPoint x="70" y="20" as="sourcePoint"/>
                        <mxPoint y="20" as="targetPoint"/>
                    </mxGeometry>
                </mxCell>
                <mxCell id="24" value="solicitudes" style="text;html=1;align=center;verticalAlign=middle;resizable=0;points=[];autosize=1;strokeColor=none;fillColor=none;" parent="1" vertex="1">
                    <mxGeometry x="295.2" y="201.5" width="80" height="30" as="geometry"/>
                </mxCell>
                <mxCell id="28" style="edgeStyle=none;html=1;entryX=1;entryY=0.5;entryDx=0;entryDy=0;" parent="1" source="25" target="7" edge="1">
                    <mxGeometry relative="1" as="geometry">
                        <Array as="points">
                            <mxPoint x="450" y="250"/>
                        </Array>
                    </mxGeometry>
                </mxCell>
                <mxCell id="25" value="" style="sketch=0;aspect=fixed;html=1;points=[];align=center;image;fontSize=12;image=img/lib/mscae/Cache_Redis_Product.svg;" parent="1" vertex="1">
                    <mxGeometry x="470" y="220.5" width="50" height="42" as="geometry"/>
                </mxCell>
                <mxCell id="26" value="" style="edgeStyle=none;html=1;" parent="1" source="7" target="25" edge="1">
                    <mxGeometry relative="1" as="geometry">
                        <Array as="points">
                            <mxPoint x="450" y="230"/>
                        </Array>
                    </mxGeometry>
                </mxCell>
                <mxCell id="29" value="" style="aspect=fixed;perimeter=ellipsePerimeter;html=1;align=center;shadow=0;dashed=0;spacingTop=3;image;image=img/lib/active_directory/database_server.svg;" parent="1" vertex="1">
                    <mxGeometry x="561.61" y="196.75" width="73.39" height="89.5" as="geometry"/>
                </mxCell>
                <mxCell id="30" value="redis&lt;br&gt;cache" style="text;html=1;align=center;verticalAlign=middle;resizable=0;points=[];autosize=1;strokeColor=none;fillColor=none;" parent="1" vertex="1">
                    <mxGeometry x="460" y="270" width="60" height="40" as="geometry"/>
                </mxCell>
                <mxCell id="31" value="postgreSQL" style="text;html=1;align=center;verticalAlign=middle;resizable=0;points=[];autosize=1;strokeColor=none;fillColor=none;" parent="1" vertex="1">
                    <mxGeometry x="545" y="295" width="90" height="30" as="geometry"/>
                </mxCell>
                <mxCell id="34" value="" style="group" vertex="1" connectable="0" parent="1">
                    <mxGeometry x="340" y="50" width="130" height="78" as="geometry"/>
                </mxCell>
                <mxCell id="32" value="" style="sketch=0;html=1;dashed=0;whitespace=wrap;fillColor=#2875E2;strokeColor=#ffffff;points=[[0.005,0.63,0],[0.1,0.2,0],[0.9,0.2,0],[0.5,0,0],[0.995,0.63,0],[0.72,0.99,0],[0.5,1,0],[0.28,0.99,0]];verticalLabelPosition=bottom;align=center;verticalAlign=top;shape=mxgraph.kubernetes.icon;prIcon=api" vertex="1" parent="34">
                    <mxGeometry x="39.80000000000001" width="50" height="48" as="geometry"/>
                </mxCell>
                <mxCell id="33" value="Notificaicones push" style="text;html=1;align=center;verticalAlign=middle;resizable=0;points=[];autosize=1;strokeColor=none;fillColor=none;" vertex="1" parent="34">
                    <mxGeometry y="48" width="130" height="30" as="geometry"/>
                </mxCell>
                <mxCell id="35" value="" style="edgeStyle=none;html=1;" edge="1" parent="1" source="12" target="33">
                    <mxGeometry relative="1" as="geometry"/>
                </mxCell>
                <mxCell id="36" style="edgeStyle=none;html=1;entryX=1;entryY=0.5;entryDx=0;entryDy=0;" edge="1" parent="1">
                    <mxGeometry relative="1" as="geometry">
                        <Array as="points">
                            <mxPoint x="539.6" y="251.5"/>
                        </Array>
                        <mxPoint x="559.6" y="247.72222222222217" as="sourcePoint"/>
                        <mxPoint x="520.0000000000022" y="243" as="targetPoint"/>
                    </mxGeometry>
                </mxCell>
                <mxCell id="37" value="" style="edgeStyle=none;html=1;" edge="1" parent="1">
                    <mxGeometry relative="1" as="geometry">
                        <Array as="points">
                            <mxPoint x="539.84" y="231.5"/>
                        </Array>
                        <mxPoint x="519.9966120161918" y="236.7608469959522" as="sourcePoint"/>
                        <mxPoint x="559.84" y="236.6111111111111" as="targetPoint"/>
                    </mxGeometry>
                </mxCell>
            </root>
        </mxGraphModel>
    </diagram>
</mxfile>